<mxfile host="65bd71144e">
    <diagram name="Page-1" id="xsD7nlaYfU0pyfj-mYD8">
        <mxGraphModel dx="1226" dy="554" grid="1" gridSize="10" guides="1" tooltips="1" connect="1" arrows="1" fold="1" page="1" pageScale="1" pageWidth="850" pageHeight="1100" math="0" shadow="0">
            <root>
                <mxCell id="0"/>
                <mxCell id="1" parent="0"/>
                <mxCell id="zAmbzO_jsxfKOLeR5f_i-3" value="&lt;u&gt;&lt;b&gt;Ma_PhieuDangKy&lt;/b&gt;&lt;/u&gt;" style="rounded=0;whiteSpace=wrap;html=1;" parent="1" vertex="1">
                    <mxGeometry x="170" y="30" width="120" height="30" as="geometry"/>
                </mxCell>
                <mxCell id="zAmbzO_jsxfKOLeR5f_i-7" value="&lt;span style=&quot;font-family: Helvetica; font-variant-ligatures: normal; font-variant-caps: normal; letter-spacing: normal; orphans: 2; text-align: left; text-indent: 0px; text-transform: none; widows: 2; word-spacing: 0px; -webkit-text-stroke-width: 0px; text-decoration-thickness: initial; text-decoration-style: initial; text-decoration-color: initial; float: none; font-size: 15px; display: inline !important;&quot;&gt;&lt;span style=&quot;font-size: 15px;&quot;&gt;&lt;font style=&quot;font-size: 15px;&quot;&gt;PhieuDangKyKham&amp;nbsp;&lt;/font&gt;&lt;/span&gt;&lt;/span&gt;" style="text;whiteSpace=wrap;html=1;fontColor=default;labelBackgroundColor=none;fontSize=15;fontStyle=3" parent="1" vertex="1">
                    <mxGeometry x="10" y="30" width="140" height="25" as="geometry"/>
                </mxCell>
                <mxCell id="zAmbzO_jsxfKOLeR5f_i-9" value="NgayDangKy" style="rounded=0;whiteSpace=wrap;html=1;fontStyle=0" parent="1" vertex="1">
                    <mxGeometry x="290" y="30" width="120" height="30" as="geometry"/>
                </mxCell>
                <mxCell id="zAmbzO_jsxfKOLeR5f_i-10" value="NgayHen" style="rounded=0;whiteSpace=wrap;html=1;fontStyle=0" parent="1" vertex="1">
                    <mxGeometry x="410" y="30" width="120" height="30" as="geometry"/>
                </mxCell>
                <mxCell id="zAmbzO_jsxfKOLeR5f_i-11" value="TrieuChung" style="rounded=0;whiteSpace=wrap;html=1;fontStyle=0" parent="1" vertex="1">
                    <mxGeometry x="530" y="30" width="120" height="30" as="geometry"/>
                </mxCell>
                <mxCell id="zAmbzO_jsxfKOLeR5f_i-12" value="TrangThai" style="rounded=0;whiteSpace=wrap;html=1;fontStyle=0" parent="1" vertex="1">
                    <mxGeometry x="650" y="30" width="120" height="30" as="geometry"/>
                </mxCell>
                <mxCell id="zAmbzO_jsxfKOLeR5f_i-13" value="&lt;b&gt;&lt;u&gt;Ma_LichKham&lt;/u&gt;&lt;/b&gt;" style="rounded=0;whiteSpace=wrap;html=1;" parent="1" vertex="1">
                    <mxGeometry x="170" y="110" width="120" height="30" as="geometry"/>
                </mxCell>
                <mxCell id="zAmbzO_jsxfKOLeR5f_i-14" value="LichKham&amp;nbsp;" style="text;whiteSpace=wrap;html=1;fontSize=15;fontStyle=3" parent="1" vertex="1">
                    <mxGeometry x="10" y="112.5" width="100" height="25" as="geometry"/>
                </mxCell>
                <mxCell id="zAmbzO_jsxfKOLeR5f_i-15" value="NgayKham" style="rounded=0;whiteSpace=wrap;html=1;fontStyle=0" parent="1" vertex="1">
                    <mxGeometry x="290" y="110" width="120" height="30" as="geometry"/>
                </mxCell>
                <mxCell id="zAmbzO_jsxfKOLeR5f_i-16" value="ThoiGianBatDau" style="rounded=0;whiteSpace=wrap;html=1;fontStyle=0" parent="1" vertex="1">
                    <mxGeometry x="410" y="110" width="120" height="30" as="geometry"/>
                </mxCell>
                <mxCell id="zAmbzO_jsxfKOLeR5f_i-17" value="ThoiGianKetThuc" style="rounded=0;whiteSpace=wrap;html=1;fontStyle=0" parent="1" vertex="1">
                    <mxGeometry x="530" y="110" width="120" height="30" as="geometry"/>
                </mxCell>
                <mxCell id="zAmbzO_jsxfKOLeR5f_i-18" value="NgayTao" style="rounded=0;whiteSpace=wrap;html=1;fontStyle=0" parent="1" vertex="1">
                    <mxGeometry x="650" y="110" width="120" height="30" as="geometry"/>
                </mxCell>
                <mxCell id="zAmbzO_jsxfKOLeR5f_i-27" value="&lt;b&gt;&lt;u&gt;Ma_QuyDinh&lt;/u&gt;&lt;/b&gt;" style="rounded=0;whiteSpace=wrap;html=1;" parent="1" vertex="1">
                    <mxGeometry x="170" y="190" width="120" height="30" as="geometry"/>
                </mxCell>
                <mxCell id="zAmbzO_jsxfKOLeR5f_i-28" value="QuyDinh&amp;nbsp;" style="text;whiteSpace=wrap;html=1;fontSize=15;fontStyle=3" parent="1" vertex="1">
                    <mxGeometry x="10" y="195" width="100" height="25" as="geometry"/>
                </mxCell>
                <mxCell id="zAmbzO_jsxfKOLeR5f_i-29" value="Ten" style="rounded=0;whiteSpace=wrap;html=1;fontStyle=0" parent="1" vertex="1">
                    <mxGeometry x="290" y="190" width="120" height="30" as="geometry"/>
                </mxCell>
                <mxCell id="zAmbzO_jsxfKOLeR5f_i-30" value="GiaTri" style="rounded=0;whiteSpace=wrap;html=1;fontStyle=0" parent="1" vertex="1">
                    <mxGeometry x="410" y="190" width="120" height="30" as="geometry"/>
                </mxCell>
                <mxCell id="zAmbzO_jsxfKOLeR5f_i-34" value="&lt;b&gt;&lt;u&gt;Ma_NguoiDung&lt;/u&gt;&lt;/b&gt;" style="rounded=0;whiteSpace=wrap;html=1;" parent="1" vertex="1">
                    <mxGeometry x="170" y="350" width="120" height="30" as="geometry"/>
                </mxCell>
                <mxCell id="zAmbzO_jsxfKOLeR5f_i-35" value="NguoiDung&amp;nbsp;" style="text;whiteSpace=wrap;html=1;fontSize=15;fontStyle=3" parent="1" vertex="1">
                    <mxGeometry x="10" y="355" width="100" height="25" as="geometry"/>
                </mxCell>
                <mxCell id="zAmbzO_jsxfKOLeR5f_i-36" value="HoTen" style="rounded=0;whiteSpace=wrap;html=1;fontStyle=0" parent="1" vertex="1">
                    <mxGeometry x="290" y="350" width="120" height="30" as="geometry"/>
                </mxCell>
                <mxCell id="zAmbzO_jsxfKOLeR5f_i-37" value="NgaySinh" style="rounded=0;whiteSpace=wrap;html=1;fontStyle=0" parent="1" vertex="1">
                    <mxGeometry x="410" y="350" width="120" height="30" as="geometry"/>
                </mxCell>
                <mxCell id="zAmbzO_jsxfKOLeR5f_i-38" value="SDT" style="rounded=0;whiteSpace=wrap;html=1;fontStyle=0" parent="1" vertex="1">
                    <mxGeometry x="530" y="350" width="120" height="30" as="geometry"/>
                </mxCell>
                <mxCell id="zAmbzO_jsxfKOLeR5f_i-39" value="Email" style="rounded=0;whiteSpace=wrap;html=1;fontStyle=0" parent="1" vertex="1">
                    <mxGeometry x="650" y="350" width="120" height="30" as="geometry"/>
                </mxCell>
                <mxCell id="zAmbzO_jsxfKOLeR5f_i-40" value="DiaChi" style="rounded=0;whiteSpace=wrap;html=1;fontStyle=0" parent="1" vertex="1">
                    <mxGeometry x="770" y="350" width="120" height="30" as="geometry"/>
                </mxCell>
                <mxCell id="zAmbzO_jsxfKOLeR5f_i-46" value="VaiTro" style="rounded=0;whiteSpace=wrap;html=1;fontStyle=0" parent="1" vertex="1">
                    <mxGeometry x="1010" y="350" width="120" height="30" as="geometry"/>
                </mxCell>
                <mxCell id="zAmbzO_jsxfKOLeR5f_i-49" value="&lt;b&gt;&lt;u&gt;Ma_PhieuKham&lt;/u&gt;&lt;/b&gt;" style="rounded=0;whiteSpace=wrap;html=1;" parent="1" vertex="1">
                    <mxGeometry x="170" y="430" width="120" height="30" as="geometry"/>
                </mxCell>
                <mxCell id="zAmbzO_jsxfKOLeR5f_i-50" value="PhieuKham&amp;nbsp;" style="text;whiteSpace=wrap;html=1;fontSize=15;fontStyle=3" parent="1" vertex="1">
                    <mxGeometry x="10" y="435" width="100" height="25" as="geometry"/>
                </mxCell>
                <mxCell id="zAmbzO_jsxfKOLeR5f_i-51" value="NgayLap" style="rounded=0;whiteSpace=wrap;html=1;fontStyle=0" parent="1" vertex="1">
                    <mxGeometry x="290" y="430" width="120" height="30" as="geometry"/>
                </mxCell>
                <mxCell id="zAmbzO_jsxfKOLeR5f_i-52" value="TrieuChung" style="rounded=0;whiteSpace=wrap;html=1;fontStyle=0" parent="1" vertex="1">
                    <mxGeometry x="410" y="430" width="120" height="30" as="geometry"/>
                </mxCell>
                <mxCell id="zAmbzO_jsxfKOLeR5f_i-53" value="DuDoanBenh" style="rounded=0;whiteSpace=wrap;html=1;fontStyle=0" parent="1" vertex="1">
                    <mxGeometry x="530" y="430" width="120" height="30" as="geometry"/>
                </mxCell>
                <mxCell id="zAmbzO_jsxfKOLeR5f_i-55" value="&lt;b&gt;&lt;u&gt;Ma_HoaDon&lt;/u&gt;&lt;/b&gt;" style="rounded=0;whiteSpace=wrap;html=1;" parent="1" vertex="1">
                    <mxGeometry x="170" y="270" width="120" height="30" as="geometry"/>
                </mxCell>
                <mxCell id="zAmbzO_jsxfKOLeR5f_i-56" value="HoaDon&amp;nbsp;" style="text;whiteSpace=wrap;html=1;fontSize=15;fontStyle=3" parent="1" vertex="1">
                    <mxGeometry x="10" y="275" width="100" height="25" as="geometry"/>
                </mxCell>
                <mxCell id="zAmbzO_jsxfKOLeR5f_i-57" value="NgayLap" style="rounded=0;whiteSpace=wrap;html=1;fontStyle=0" parent="1" vertex="1">
                    <mxGeometry x="290" y="270" width="120" height="30" as="geometry"/>
                </mxCell>
                <mxCell id="zAmbzO_jsxfKOLeR5f_i-58" value="TongTien" style="rounded=0;whiteSpace=wrap;html=1;fontStyle=0" parent="1" vertex="1">
                    <mxGeometry x="410" y="270" width="120" height="30" as="geometry"/>
                </mxCell>
                <mxCell id="zAmbzO_jsxfKOLeR5f_i-59" value="TrangThaiThanhToan" style="rounded=0;whiteSpace=wrap;html=1;fontStyle=0" parent="1" vertex="1">
                    <mxGeometry x="530" y="270" width="120" height="30" as="geometry"/>
                </mxCell>
                <mxCell id="zAmbzO_jsxfKOLeR5f_i-61" value="&lt;b&gt;&lt;u&gt;Ma_Thuoc&lt;/u&gt;&lt;/b&gt;" style="rounded=0;whiteSpace=wrap;html=1;" parent="1" vertex="1">
                    <mxGeometry x="170" y="580" width="120" height="30" as="geometry"/>
                </mxCell>
                <mxCell id="zAmbzO_jsxfKOLeR5f_i-62" value="Thuoc&amp;nbsp;" style="text;whiteSpace=wrap;html=1;fontSize=15;fontStyle=3" parent="1" vertex="1">
                    <mxGeometry x="10" y="585" width="100" height="25" as="geometry"/>
                </mxCell>
                <mxCell id="zAmbzO_jsxfKOLeR5f_i-63" value="TenThuoc" style="rounded=0;whiteSpace=wrap;html=1;fontStyle=0" parent="1" vertex="1">
                    <mxGeometry x="290" y="580" width="120" height="30" as="geometry"/>
                </mxCell>
                <mxCell id="zAmbzO_jsxfKOLeR5f_i-64" value="SoLuongTon" style="rounded=0;whiteSpace=wrap;html=1;fontStyle=0" parent="1" vertex="1">
                    <mxGeometry x="410" y="580" width="120" height="30" as="geometry"/>
                </mxCell>
                <mxCell id="zAmbzO_jsxfKOLeR5f_i-65" value="NSX" style="rounded=0;whiteSpace=wrap;html=1;fontStyle=0" parent="1" vertex="1">
                    <mxGeometry x="530" y="580" width="120" height="30" as="geometry"/>
                </mxCell>
                <mxCell id="zAmbzO_jsxfKOLeR5f_i-67" value="HSD" style="rounded=0;whiteSpace=wrap;html=1;fontStyle=0" parent="1" vertex="1">
                    <mxGeometry x="650" y="580" width="120" height="30" as="geometry"/>
                </mxCell>
                <mxCell id="zAmbzO_jsxfKOLeR5f_i-68" value="Gia" style="rounded=0;whiteSpace=wrap;html=1;fontStyle=0" parent="1" vertex="1">
                    <mxGeometry x="770" y="580" width="120" height="30" as="geometry"/>
                </mxCell>
                <mxCell id="zAmbzO_jsxfKOLeR5f_i-69" value="MoTa" style="rounded=0;whiteSpace=wrap;html=1;fontStyle=0" parent="1" vertex="1">
                    <mxGeometry x="890" y="580" width="120" height="30" as="geometry"/>
                </mxCell>
                <mxCell id="zAmbzO_jsxfKOLeR5f_i-71" value="&lt;b&gt;&lt;u&gt;Ma_LoaiThuoc&lt;/u&gt;&lt;/b&gt;" style="rounded=0;whiteSpace=wrap;html=1;" parent="1" vertex="1">
                    <mxGeometry x="170" y="740" width="120" height="30" as="geometry"/>
                </mxCell>
                <mxCell id="zAmbzO_jsxfKOLeR5f_i-72" value="LoaiThuoc&amp;nbsp;" style="text;whiteSpace=wrap;html=1;fontSize=15;fontStyle=3" parent="1" vertex="1">
                    <mxGeometry x="10" y="745" width="100" height="25" as="geometry"/>
                </mxCell>
                <mxCell id="zAmbzO_jsxfKOLeR5f_i-73" value="TenLoai" style="rounded=0;whiteSpace=wrap;html=1;fontStyle=0" parent="1" vertex="1">
                    <mxGeometry x="290" y="740" width="120" height="30" as="geometry"/>
                </mxCell>
                <mxCell id="zAmbzO_jsxfKOLeR5f_i-77" value="&lt;b&gt;&lt;u&gt;Ma_DonVi&lt;/u&gt;&lt;/b&gt;" style="rounded=0;whiteSpace=wrap;html=1;" parent="1" vertex="1">
                    <mxGeometry x="170" y="820" width="120" height="30" as="geometry"/>
                </mxCell>
                <mxCell id="zAmbzO_jsxfKOLeR5f_i-78" value="DonViThuoc&amp;nbsp;" style="text;whiteSpace=wrap;html=1;fontSize=15;fontStyle=3" parent="1" vertex="1">
                    <mxGeometry x="10" y="825" width="100" height="25" as="geometry"/>
                </mxCell>
                <mxCell id="zAmbzO_jsxfKOLeR5f_i-79" value="TenDonVi" style="rounded=0;whiteSpace=wrap;html=1;fontStyle=0" parent="1" vertex="1">
                    <mxGeometry x="290" y="820" width="120" height="30" as="geometry"/>
                </mxCell>
                <mxCell id="zAmbzO_jsxfKOLeR5f_i-81" value="&lt;b&gt;&lt;u&gt;Ma_Thuoc_Loai&lt;/u&gt;&lt;/b&gt;" style="rounded=0;whiteSpace=wrap;html=1;" parent="1" vertex="1">
                    <mxGeometry x="170" y="660" width="120" height="30" as="geometry"/>
                </mxCell>
                <mxCell id="zAmbzO_jsxfKOLeR5f_i-82" value="Thuoc_LoaiThuoc" style="text;whiteSpace=wrap;html=1;fontSize=15;fontStyle=3" parent="1" vertex="1">
                    <mxGeometry x="10" y="665" width="100" height="25" as="geometry"/>
                </mxCell>
                <mxCell id="zAmbzO_jsxfKOLeR5f_i-114" style="edgeStyle=orthogonalEdgeStyle;rounded=0;orthogonalLoop=1;jettySize=auto;html=1;exitX=0.5;exitY=0;exitDx=0;exitDy=0;entryX=0.5;entryY=1;entryDx=0;entryDy=0;" parent="1" source="zAmbzO_jsxfKOLeR5f_i-83" target="zAmbzO_jsxfKOLeR5f_i-61" edge="1">
                    <mxGeometry relative="1" as="geometry">
                        <Array as="points">
                            <mxPoint x="350" y="630"/>
                            <mxPoint x="230" y="630"/>
                        </Array>
                    </mxGeometry>
                </mxCell>
                <mxCell id="zAmbzO_jsxfKOLeR5f_i-83" value="&lt;b&gt;&lt;i&gt;#MaThuoc&lt;/i&gt;&lt;/b&gt;" style="rounded=0;whiteSpace=wrap;html=1;fontStyle=0" parent="1" vertex="1">
                    <mxGeometry x="290" y="660" width="120" height="30" as="geometry"/>
                </mxCell>
                <mxCell id="zAmbzO_jsxfKOLeR5f_i-115" style="edgeStyle=orthogonalEdgeStyle;rounded=0;orthogonalLoop=1;jettySize=auto;html=1;entryX=0.5;entryY=0;entryDx=0;entryDy=0;" parent="1" source="zAmbzO_jsxfKOLeR5f_i-84" target="zAmbzO_jsxfKOLeR5f_i-71" edge="1">
                    <mxGeometry relative="1" as="geometry">
                        <Array as="points">
                            <mxPoint x="470" y="720"/>
                            <mxPoint x="230" y="720"/>
                        </Array>
                    </mxGeometry>
                </mxCell>
                <mxCell id="zAmbzO_jsxfKOLeR5f_i-84" value="&lt;b&gt;&lt;i&gt;#Ma_LoaiThuoc&lt;/i&gt;&lt;/b&gt;" style="rounded=0;whiteSpace=wrap;html=1;fontStyle=0" parent="1" vertex="1">
                    <mxGeometry x="410" y="660" width="120" height="30" as="geometry"/>
                </mxCell>
                <mxCell id="zAmbzO_jsxfKOLeR5f_i-86" style="edgeStyle=orthogonalEdgeStyle;rounded=0;orthogonalLoop=1;jettySize=auto;html=1;exitX=0.5;exitY=1;exitDx=0;exitDy=0;entryX=0.5;entryY=0;entryDx=0;entryDy=0;shadow=0;" parent="1" source="zAmbzO_jsxfKOLeR5f_i-85" target="zAmbzO_jsxfKOLeR5f_i-13" edge="1">
                    <mxGeometry relative="1" as="geometry">
                        <Array as="points">
                            <mxPoint x="830" y="90"/>
                            <mxPoint x="230" y="90"/>
                        </Array>
                    </mxGeometry>
                </mxCell>
                <mxCell id="zAmbzO_jsxfKOLeR5f_i-85" value="&lt;i&gt;&lt;b&gt;#Ma_LichKham&lt;/b&gt;&lt;/i&gt;" style="rounded=0;whiteSpace=wrap;html=1;fontStyle=0" parent="1" vertex="1">
                    <mxGeometry x="770" y="30" width="120" height="30" as="geometry"/>
                </mxCell>
                <mxCell id="AruXMNNTgV8MGfLxSPk2-19" style="edgeStyle=orthogonalEdgeStyle;rounded=0;orthogonalLoop=1;jettySize=auto;html=1;entryX=0.5;entryY=0;entryDx=0;entryDy=0;exitX=1;exitY=0.5;exitDx=0;exitDy=0;" parent="1" source="2" target="zAmbzO_jsxfKOLeR5f_i-34" edge="1">
                    <mxGeometry relative="1" as="geometry">
                        <Array as="points">
                            <mxPoint x="1170" y="45"/>
                            <mxPoint x="1170" y="330"/>
                            <mxPoint x="230" y="330"/>
                        </Array>
                        <mxPoint x="1060" y="90" as="sourcePoint"/>
                    </mxGeometry>
                </mxCell>
                <mxCell id="3" style="edgeStyle=orthogonalEdgeStyle;html=1;exitX=0.5;exitY=1;exitDx=0;exitDy=0;entryX=0.5;entryY=0;entryDx=0;entryDy=0;" edge="1" parent="1" source="zAmbzO_jsxfKOLeR5f_i-87" target="zAmbzO_jsxfKOLeR5f_i-34">
                    <mxGeometry relative="1" as="geometry">
                        <mxPoint x="1180" y="170" as="targetPoint"/>
                        <Array as="points">
                            <mxPoint x="950" y="80"/>
                            <mxPoint x="1170" y="80"/>
                            <mxPoint x="1170" y="330"/>
                            <mxPoint x="230" y="330"/>
                        </Array>
                    </mxGeometry>
                </mxCell>
                <mxCell id="zAmbzO_jsxfKOLeR5f_i-87" value="&lt;b&gt;&lt;i&gt;#Ma_BenhNhan&lt;/i&gt;&lt;/b&gt;" style="rounded=0;whiteSpace=wrap;html=1;fontStyle=0" parent="1" vertex="1">
                    <mxGeometry x="890" y="30" width="120" height="30" as="geometry"/>
                </mxCell>
                <mxCell id="AruXMNNTgV8MGfLxSPk2-20" style="edgeStyle=orthogonalEdgeStyle;rounded=0;orthogonalLoop=1;jettySize=auto;html=1;exitX=1;exitY=0.5;exitDx=0;exitDy=0;entryX=0.5;entryY=0;entryDx=0;entryDy=0;" parent="1" source="zAmbzO_jsxfKOLeR5f_i-89" target="zAmbzO_jsxfKOLeR5f_i-34" edge="1">
                    <mxGeometry relative="1" as="geometry">
                        <Array as="points">
                            <mxPoint x="1170" y="125"/>
                            <mxPoint x="1170" y="330"/>
                            <mxPoint x="230" y="330"/>
                        </Array>
                    </mxGeometry>
                </mxCell>
                <mxCell id="zAmbzO_jsxfKOLeR5f_i-89" value="&lt;i&gt;&lt;b&gt;#Ma_YTa&lt;/b&gt;&lt;/i&gt;" style="rounded=0;whiteSpace=wrap;html=1;fontStyle=0" parent="1" vertex="1">
                    <mxGeometry x="890" y="110" width="120" height="30" as="geometry"/>
                </mxCell>
                <mxCell id="zAmbzO_jsxfKOLeR5f_i-90" value="&lt;b&gt;&lt;i&gt;#Ma_QuyDinh&lt;/i&gt;&lt;/b&gt;" style="rounded=0;whiteSpace=wrap;html=1;fontStyle=0" parent="1" vertex="1">
                    <mxGeometry x="770" y="110" width="120" height="30" as="geometry"/>
                </mxCell>
                <mxCell id="zAmbzO_jsxfKOLeR5f_i-97" style="edgeStyle=orthogonalEdgeStyle;rounded=0;orthogonalLoop=1;jettySize=auto;html=1;exitX=0.5;exitY=0;exitDx=0;exitDy=0;entryX=0.5;entryY=1;entryDx=0;entryDy=0;" parent="1" source="zAmbzO_jsxfKOLeR5f_i-95" target="zAmbzO_jsxfKOLeR5f_i-34" edge="1">
                    <mxGeometry relative="1" as="geometry">
                        <Array as="points">
                            <mxPoint x="710" y="400"/>
                            <mxPoint x="230" y="400"/>
                        </Array>
                    </mxGeometry>
                </mxCell>
                <mxCell id="zAmbzO_jsxfKOLeR5f_i-95" value="&lt;b&gt;&lt;i&gt;#Ma_BacSi&lt;/i&gt;&lt;/b&gt;" style="rounded=0;whiteSpace=wrap;html=1;fontStyle=0" parent="1" vertex="1">
                    <mxGeometry x="650" y="430" width="120" height="30" as="geometry"/>
                </mxCell>
                <mxCell id="zAmbzO_jsxfKOLeR5f_i-98" style="edgeStyle=orthogonalEdgeStyle;rounded=0;orthogonalLoop=1;jettySize=auto;html=1;exitX=0.5;exitY=0;exitDx=0;exitDy=0;entryX=0.5;entryY=1;entryDx=0;entryDy=0;" parent="1" source="zAmbzO_jsxfKOLeR5f_i-96" target="zAmbzO_jsxfKOLeR5f_i-34" edge="1">
                    <mxGeometry relative="1" as="geometry">
                        <Array as="points">
                            <mxPoint x="830" y="400"/>
                            <mxPoint x="230" y="400"/>
                        </Array>
                    </mxGeometry>
                </mxCell>
                <mxCell id="zAmbzO_jsxfKOLeR5f_i-96" value="&lt;b&gt;&lt;i&gt;#Ma_BenhNhan&lt;/i&gt;&lt;/b&gt;" style="rounded=0;whiteSpace=wrap;html=1;fontStyle=0" parent="1" vertex="1">
                    <mxGeometry x="770" y="430" width="120" height="30" as="geometry"/>
                </mxCell>
                <mxCell id="AruXMNNTgV8MGfLxSPk2-14" style="edgeStyle=orthogonalEdgeStyle;rounded=0;orthogonalLoop=1;jettySize=auto;html=1;exitX=0.5;exitY=1;exitDx=0;exitDy=0;entryX=0.5;entryY=0;entryDx=0;entryDy=0;" parent="1" source="zAmbzO_jsxfKOLeR5f_i-99" target="zAmbzO_jsxfKOLeR5f_i-34" edge="1">
                    <mxGeometry relative="1" as="geometry">
                        <Array as="points">
                            <mxPoint x="830" y="330"/>
                            <mxPoint x="230" y="330"/>
                        </Array>
                    </mxGeometry>
                </mxCell>
                <mxCell id="zAmbzO_jsxfKOLeR5f_i-99" value="&lt;b&gt;&lt;i&gt;#Ma_NhanVien&lt;/i&gt;&lt;/b&gt;" style="rounded=0;whiteSpace=wrap;html=1;fontStyle=0" parent="1" vertex="1">
                    <mxGeometry x="770" y="270" width="120" height="30" as="geometry"/>
                </mxCell>
                <mxCell id="AruXMNNTgV8MGfLxSPk2-15" style="edgeStyle=orthogonalEdgeStyle;rounded=0;orthogonalLoop=1;jettySize=auto;html=1;exitX=0.5;exitY=1;exitDx=0;exitDy=0;entryX=0.5;entryY=0;entryDx=0;entryDy=0;" parent="1" source="zAmbzO_jsxfKOLeR5f_i-100" target="zAmbzO_jsxfKOLeR5f_i-34" edge="1">
                    <mxGeometry relative="1" as="geometry">
                        <Array as="points">
                            <mxPoint x="950" y="330"/>
                            <mxPoint x="230" y="330"/>
                        </Array>
                    </mxGeometry>
                </mxCell>
                <mxCell id="zAmbzO_jsxfKOLeR5f_i-100" value="&lt;b&gt;&lt;i&gt;#Ma_BenhNhan&lt;/i&gt;&lt;/b&gt;" style="rounded=0;whiteSpace=wrap;html=1;fontStyle=0" parent="1" vertex="1">
                    <mxGeometry x="890" y="270" width="120" height="30" as="geometry"/>
                </mxCell>
                <mxCell id="zAmbzO_jsxfKOLeR5f_i-111" style="edgeStyle=orthogonalEdgeStyle;rounded=0;orthogonalLoop=1;jettySize=auto;html=1;exitX=0.5;exitY=1;exitDx=0;exitDy=0;entryX=0.5;entryY=0;entryDx=0;entryDy=0;" parent="1" source="zAmbzO_jsxfKOLeR5f_i-105" target="zAmbzO_jsxfKOLeR5f_i-77" edge="1">
                    <mxGeometry relative="1" as="geometry">
                        <mxPoint x="250" y="900" as="targetPoint"/>
                        <Array as="points">
                            <mxPoint x="1060" y="800"/>
                            <mxPoint x="230" y="800"/>
                        </Array>
                    </mxGeometry>
                </mxCell>
                <mxCell id="zAmbzO_jsxfKOLeR5f_i-105" value="&lt;b&gt;&lt;i&gt;#Ma_DonVi&lt;/i&gt;&lt;/b&gt;" style="rounded=0;whiteSpace=wrap;html=1;fontStyle=0" parent="1" vertex="1">
                    <mxGeometry x="1000" y="580" width="120" height="30" as="geometry"/>
                </mxCell>
                <mxCell id="zAmbzO_jsxfKOLeR5f_i-106" value="&lt;b&gt;&lt;u&gt;Ma_CTPK&lt;/u&gt;&lt;/b&gt;" style="rounded=0;whiteSpace=wrap;html=1;" parent="1" vertex="1">
                    <mxGeometry x="170" y="500" width="120" height="30" as="geometry"/>
                </mxCell>
                <mxCell id="zAmbzO_jsxfKOLeR5f_i-107" value="ChiTietPhieuKham&amp;nbsp;" style="text;whiteSpace=wrap;html=1;fontSize=15;fontStyle=3" parent="1" vertex="1">
                    <mxGeometry x="10" y="505" width="100" height="25" as="geometry"/>
                </mxCell>
                <mxCell id="zAmbzO_jsxfKOLeR5f_i-108" value="SoLuongThuocKeDon" style="rounded=0;whiteSpace=wrap;html=1;fontStyle=0" parent="1" vertex="1">
                    <mxGeometry x="290" y="500" width="120" height="30" as="geometry"/>
                </mxCell>
                <mxCell id="zAmbzO_jsxfKOLeR5f_i-109" value="LieuDung" style="rounded=0;whiteSpace=wrap;html=1;fontStyle=0" parent="1" vertex="1">
                    <mxGeometry x="410" y="500" width="120" height="30" as="geometry"/>
                </mxCell>
                <mxCell id="zAmbzO_jsxfKOLeR5f_i-121" style="edgeStyle=orthogonalEdgeStyle;rounded=0;orthogonalLoop=1;jettySize=auto;html=1;exitX=0.5;exitY=0;exitDx=0;exitDy=0;entryX=0.5;entryY=1;entryDx=0;entryDy=0;" parent="1" source="zAmbzO_jsxfKOLeR5f_i-116" target="zAmbzO_jsxfKOLeR5f_i-49" edge="1">
                    <mxGeometry relative="1" as="geometry">
                        <mxPoint x="770" y="900" as="sourcePoint"/>
                        <mxPoint x="190" y="430" as="targetPoint"/>
                        <Array as="points">
                            <mxPoint x="710" y="480"/>
                            <mxPoint x="230" y="480"/>
                        </Array>
                    </mxGeometry>
                </mxCell>
                <mxCell id="zAmbzO_jsxfKOLeR5f_i-116" value="&lt;i&gt;&lt;b&gt;#Ma_PhieuKham&lt;/b&gt;&lt;/i&gt;" style="rounded=0;whiteSpace=wrap;html=1;fontStyle=0" parent="1" vertex="1">
                    <mxGeometry x="650" y="500" width="120" height="30" as="geometry"/>
                </mxCell>
                <mxCell id="zAmbzO_jsxfKOLeR5f_i-118" style="edgeStyle=orthogonalEdgeStyle;rounded=0;orthogonalLoop=1;jettySize=auto;html=1;exitX=0.5;exitY=0;exitDx=0;exitDy=0;entryX=0.5;entryY=0;entryDx=0;entryDy=0;" parent="1" source="zAmbzO_jsxfKOLeR5f_i-117" target="zAmbzO_jsxfKOLeR5f_i-61" edge="1">
                    <mxGeometry relative="1" as="geometry">
                        <mxPoint x="300" y="550" as="targetPoint"/>
                        <Array as="points">
                            <mxPoint x="590" y="560"/>
                            <mxPoint x="230" y="560"/>
                        </Array>
                    </mxGeometry>
                </mxCell>
                <mxCell id="zAmbzO_jsxfKOLeR5f_i-117" value="&lt;b&gt;&lt;i&gt;#Ma_Thuoc&lt;/i&gt;&lt;/b&gt;" style="rounded=0;whiteSpace=wrap;html=1;fontStyle=0" parent="1" vertex="1">
                    <mxGeometry x="530" y="500" width="120" height="30" as="geometry"/>
                </mxCell>
                <mxCell id="AruXMNNTgV8MGfLxSPk2-1" value="&lt;b&gt;&lt;i&gt;#Ma_QuyDinh&lt;/i&gt;&lt;/b&gt;" style="rounded=0;whiteSpace=wrap;html=1;fontStyle=0" parent="1" vertex="1">
                    <mxGeometry x="650" y="270" width="120" height="30" as="geometry"/>
                </mxCell>
                <mxCell id="I2EGH48z8C16z5GXFJ6O-3" style="edgeStyle=orthogonalEdgeStyle;rounded=0;orthogonalLoop=1;jettySize=auto;html=1;exitX=1;exitY=0.5;exitDx=0;exitDy=0;entryX=0.5;entryY=0;entryDx=0;entryDy=0;" parent="1" source="AruXMNNTgV8MGfLxSPk2-16" target="zAmbzO_jsxfKOLeR5f_i-49" edge="1">
                    <mxGeometry relative="1" as="geometry">
                        <Array as="points">
                            <mxPoint x="1160" y="285"/>
                            <mxPoint x="1160" y="410"/>
                            <mxPoint x="230" y="410"/>
                        </Array>
                    </mxGeometry>
                </mxCell>
                <mxCell id="AruXMNNTgV8MGfLxSPk2-16" value="&lt;b&gt;&lt;i&gt;#Ma_PhieuKham&lt;/i&gt;&lt;/b&gt;" style="rounded=0;whiteSpace=wrap;html=1;fontStyle=0" parent="1" vertex="1">
                    <mxGeometry x="1010" y="270" width="120" height="30" as="geometry"/>
                </mxCell>
                <mxCell id="zAmbzO_jsxfKOLeR5f_i-45" value="MatKhau" style="rounded=0;whiteSpace=wrap;html=1;fontStyle=0" parent="1" vertex="1">
                    <mxGeometry x="890" y="350" width="120" height="30" as="geometry"/>
                </mxCell>
                <mxCell id="2" value="&lt;b&gt;&lt;i&gt;#Ma_BacSi&lt;/i&gt;&lt;/b&gt;" style="rounded=0;whiteSpace=wrap;html=1;fontStyle=0" vertex="1" parent="1">
                    <mxGeometry x="1010" y="30" width="120" height="30" as="geometry"/>
                </mxCell>
            </root>
        </mxGraphModel>
    </diagram>
</mxfile>
